<svg id="Layer_1" data-name="Layer 1" xmlns="http://www.w3.org/2000/svg" viewBox="0 0 60 60"><defs><style>.cls-1{fill:#ccc;}.cls-2{fill:#fff;}</style></defs><title>social Icons</title><rect class="cls-1" x="0.03" y="0.03" width="59.94" height="59.94" rx="12" ry="12"/><g id="_Group_" data-name="&lt;Group&gt;"><path id="_Compound_Path_" data-name="&lt;Compound Path&gt;" class="cls-2" d="M11,23.42h8.14V49.6H11Zm4.09-13a4.72,4.72,0,1,1-4.72,4.72A4.73,4.73,0,0,1,15.1,10.4"/><path id="_Path_" data-name="&lt;Path&gt;" class="cls-2" d="M24.26,23.42h7.79V27h.11a8.55,8.55,0,0,1,7.7-4.22c8.23,0,9.76,5.42,9.76,12.47V49.6H41.5V36.87c0-3,0-6.95-4.22-6.95s-4.87,3.31-4.87,6.72v13H24.28V23.42Z"/></g></svg>