<svg id="Layer_1" data-name="Layer 1" xmlns="http://www.w3.org/2000/svg" viewBox="0 0 60 60"><defs><style>.cls-1{fill:#ccc;}.cls-2{fill:#fff;}</style></defs><title>social Icons</title><rect class="cls-1" x="0.03" y="0.03" width="59.94" height="59.94" rx="12" ry="12"/><path class="cls-2" d="M48.52,18.51a15.08,15.08,0,0,1-4.36,1.2,7.63,7.63,0,0,0,3.34-4.2,15.22,15.22,0,0,1-4.82,1.84,7.61,7.61,0,0,0-12.95,6.93,21.58,21.58,0,0,1-15.66-7.94,7.61,7.61,0,0,0,2.35,10.15,7.57,7.57,0,0,1-3.44-1s0,.06,0,.09a7.6,7.6,0,0,0,6.09,7.45,7.63,7.63,0,0,1-3.43.13,7.61,7.61,0,0,0,7.1,5.28,15.33,15.33,0,0,1-11.25,3.15A21.52,21.52,0,0,0,23.13,45c14,0,21.62-11.58,21.62-21.62,0-.33,0-.66,0-1A15.41,15.41,0,0,0,48.52,18.51Z"/></svg>